HIERARCHY
ROOT Hips
{
	OFFSET	0.000000	0.000000	0.000000
	CHANNELS 4 Xposition Yposition Zposition Xrotation

		End Site
		{
			OFFSET	0.0	0.0	0.0
		}
}

MOTION 
Frames: 3
Frame Time: 0.02
 0 0 0 0 
-1.5 1 0 45
-3 2 0 90 
